<?xml version="1.0" standalone="no"?>
<!DOCTYPE svg PUBLIC "-//W3C//DTD SVG 20010904//EN"
 "http://www.w3.org/TR/2001/REC-SVG-20010904/DTD/svg10.dtd">
<svg version="1.0" xmlns="http://www.w3.org/2000/svg"
 width="1080.000000pt" height="1080.000000pt" viewBox="0 0 1080.000000 1080.000000"
 preserveAspectRatio="xMidYMid meet">
<metadata>
Created by potrace 1.14, written by Peter Selinger 2001-2017
</metadata>
<g transform="translate(0.000000,1080.000000) scale(0.100000,-0.100000)"
fill="#000000" stroke="none">
<path d="M0 5400 l0 -5400 5400 0 5400 0 0 5400 0 5400 -5400 0 -5400 0 0
-5400z m4115 2471 c1016 -132 1655 -264 2370 -493 644 -205 1145 -492 1500
-859 161 -166 264 -307 353 -485 67 -133 93 -223 157 -546 77 -390 138 -563
237 -665 53 -54 112 -79 232 -97 106 -15 137 -30 162 -78 39 -75 36 -368 -6
-544 -84 -354 -324 -638 -716 -846 -290 -153 -677 -265 -1139 -327 -279 -38
-866 -53 -1197 -31 -192 13 -556 53 -725 80 -1036 165 -1787 450 -2388 904
-153 116 -222 210 -250 343 -41 192 -2 373 155 732 73 166 100 335 71 441 -17
61 -90 132 -155 150 -48 13 -300 9 -506 -9 -47 -4 -130 -3 -185 1 -294 24
-462 145 -442 320 8 64 75 205 167 348 85 134 92 150 172 375 121 343 213 481
342 516 84 23 194 -9 287 -82 20 -16 74 -83 120 -150 53 -78 99 -134 127 -154
48 -34 488 -285 501 -285 4 0 -2 46 -15 103 -133 590 -121 1004 36 1231 38 56
83 91 157 122 55 23 66 25 198 20 77 -2 248 -18 380 -35z"/>
<path d="M6815 6526 c-260 -38 -469 -141 -651 -321 -448 -443 -440 -1179 19
-1611 407 -383 1019 -419 1467 -86 132 99 220 199 307 352 52 90 55 112 11 75
-49 -41 -182 -104 -267 -126 -107 -28 -287 -28 -396 0 -307 79 -515 317 -515
589 0 158 52 274 180 403 70 71 100 94 170 127 143 68 184 77 365 77 155 0
163 -1 253 -33 52 -18 126 -53 165 -80 40 -26 78 -51 85 -55 22 -14 -72 163
-124 233 -249 338 -664 516 -1069 456z"/>
</g>
</svg>
